<svg width="15" height="15" viewBox="0 0 15 15" fill="none" xmlns="http://www.w3.org/2000/svg">
<path d="M10.6312 1.76633L11.3738 1.02383C11.6691 0.728445 12.0698 0.5625 12.4875 0.5625C12.9052 0.5625 13.3059 0.728445 13.6013 1.02383C13.8966 1.31922 14.0626 1.71984 14.0626 2.13758C14.0626 2.55532 13.8966 2.95595 13.6013 3.25133L12.8588 3.99383M10.6312 1.76633L5.63625 6.76133C5.25575 7.14208 4.98589 7.61908 4.8555 8.14133L4.3125 10.3126L6.4845 9.76958C7.00683 9.63898 7.48384 9.36885 7.8645 8.98808L12.8588 3.99383M10.6312 1.76633L12.8588 3.99383" stroke="#161616" stroke-width="1.125" stroke-linejoin="round"/>
<path d="M12.5625 8.43759C12.5625 10.9036 12.5625 12.1358 11.8815 12.9661C11.7569 13.1179 11.6178 13.257 11.466 13.3816C10.635 14.0626 9.4035 14.0626 6.9375 14.0626H6.5625C3.73425 14.0626 2.31975 14.0626 1.4415 13.1836C0.56325 12.3046 0.5625 10.8908 0.5625 8.06259V7.68759C0.5625 5.22234 0.5625 3.98934 1.2435 3.15909C1.3685 3.00709 1.507 2.86859 1.659 2.74359C2.49 2.06259 3.7215 2.06259 6.1875 2.06259" stroke="#161616" stroke-width="1.125" stroke-linecap="round" stroke-linejoin="round"/>
</svg>


