<svg width="15" height="15" viewBox="0 0 15 15" fill="none" xmlns="http://www.w3.org/2000/svg">
<path d="M13.9586 13.9586L10.5836 10.5836M10.5836 10.5836C11.1253 10.0419 11.555 9.39883 11.8482 8.69106C12.1414 7.9833 12.2923 7.22471 12.2923 6.45863C12.2923 5.69255 12.1414 4.93397 11.8482 4.2262C11.555 3.51843 11.1253 2.87533 10.5836 2.33363C10.0419 1.79193 9.39883 1.36223 8.69106 1.06906C7.9833 0.775891 7.22471 0.625 6.45863 0.625C5.69255 0.625 4.93397 0.775891 4.2262 1.06906C3.51843 1.36223 2.87533 1.79193 2.33363 2.33363C1.23961 3.42765 0.625 4.91146 0.625 6.45863C0.625 8.00581 1.23961 9.48961 2.33363 10.5836C3.42765 11.6776 4.91146 12.2923 6.45863 12.2923C8.00581 12.2923 9.48961 11.6776 10.5836 10.5836Z" stroke="#161616" stroke-width="1.25" stroke-linecap="round" stroke-linejoin="round"/>
</svg>
